<?xml version="1.0" standalone="no"?><!DOCTYPE svg PUBLIC "-//W3C//DTD SVG 1.1//EN" "http://www.w3.org/Graphics/SVG/1.1/DTD/svg11.dtd"><svg t="1610773200259" class="icon" viewBox="0 0 1024 1024" version="1.1" xmlns="http://www.w3.org/2000/svg" p-id="4333" xmlns:xlink="http://www.w3.org/1999/xlink" width="200" height="200"><defs><style type="text/css"></style></defs><path d="M640 0l0 384 384 0L1024 0 640 0zM981.333333 341.333333 682.666667 341.333333 682.666667 42.666667l298.666667 0L981.333333 341.333333zM981.333333 981.333333 661.333333 981.333333l0 42.666667 362.666667 0L1024 640l-42.666667 0L981.333333 981.333333zM789.333333 704 469.333333 704l0 256 42.666667 0L512 746.666667l277.333333 0L789.333333 704zM0 384l384 0L384 0 0 0 0 384zM42.666667 42.666667l298.666667 0 0 298.666667L42.666667 341.333333 42.666667 42.666667zM0 1024l384 0L384 640 0 640 0 1024zM42.666667 682.666667l298.666667 0 0 298.666667L42.666667 981.333333 42.666667 682.666667zM490.666667 0l-42.666667 0 0 384 42.666667 0L490.666667 0zM576 170.666667l-42.666667 0 0 213.333333 42.666667 0L576 170.666667zM576 426.666667l-128 0 0 128 128 0L576 426.666667zM533.333333 661.333333l192 0 0-42.666667-192 0L533.333333 661.333333zM362.666667 533.333333 0 533.333333l0 42.666667 362.666667 0L362.666667 533.333333zM149.333333 448 0 448l0 42.666667 149.333333 0L149.333333 448zM213.333333 490.666667l170.666667 0 0-42.666667-170.666667 0L213.333333 490.666667zM128 256l128 0L256 128 128 128 128 256zM896 128l-128 0 0 128 128 0L896 128zM128 896l128 0 0-128L128 768 128 896zM725.333333 789.333333l-170.666667 0 0 64 170.666667 0L725.333333 789.333333zM789.333333 853.333333l170.666667 0 0-64-170.666667 0L789.333333 853.333333zM960 896 597.333333 896l0 42.666667 362.666667 0L960 896zM682.666667 490.666667l341.333333 0 0-42.666667L682.666667 448 682.666667 490.666667zM789.333333 533.333333l-149.333333 0 0 42.666667 149.333333 0L789.333333 533.333333zM853.333333 576l170.666667 0 0-42.666667-170.666667 0L853.333333 576z" p-id="4334"></path></svg>